<svg xmlns="http://www.w3.org/2000/svg" viewBox="0 0 1085 644.14"><path fill="#cc261e" stroke="#000" stroke-miterlimit="10" stroke-width="6" d="M534 589.94H13"/><path d="M289.3 277.81c14.4-2.3 77 4.6 83 4.6s61-4.6 69.7 1.2c5.5 5.8 38.2 7 48.7 28.4 6 21.4 21 29 21 29s6.6 2.2 10.5-7.6c14.4 10.4 27-27.8 32-34.8s38.8-20.3 54.3-23.2 38.7 6.4 52 6.4 21-4.6 27-4a282.8 282.8 0 0 0 41 .5c17.2-1.2 27-5.8 40.4-2.3 6.7-.4 64 107.3 95.2 167.2H1047c-15.5-24.8-54.2-79.6-97.8-143-56.5-81.6-107.3-124-123.4-136.7s-67.5-77-91.8-117.7-47.6-27.8-62-30-90.5-17.5-100-15.2-18.8 30-33.7 41.7c-7.8 7.6-11 16.3-13.3 16.3s-3.3-5.8-16-19.2c-15-11-34.4-40-45.5-39.4s-58 15.7-82.4 22.6-38 1.2-47.4 11.6-25.5 34.2-33.2 47-25.5 41.79-78.6 85.2-80.2 86.4-80.2 86.4c-8.8 10.4-67.4 83.5-67.4 83.5L0 443.41h175c22.2-41.5 90-164.6 114.3-165.6zm112.3-163c12.2-29 33.2-31.8 33.2-31.8 18.8-6 34.3 4 37.6 5.7s15 15.7 18.2 20.3c16.6 37.7 31.6 33 38.2 29 6-3.6 1 4.6 18.8 4.7 17.7-6 19.4-33.7 27.7-44.7 7.7-9.3 15.5-12.8 35.4-13.3s40.3 23 42 31.8c2.5 13.3 10.5 24.4-16 59.2-21.8 35.3-36 36.3-67 53.3a230.7 230.7 0 0 0-50.3 37.7c-3.4-11.6-56.4-35.3-86.4-57.3-25.3-23.8-37-73.6-31.4-94.5z" fill="#277ba0"/><text transform="translate(427.71 183.45)" style="isolation:isolate" font-size="36" font-family="Helvetica,sans-serif" font-weight="700">Fist to Five</text><path d="M88.2 390.61c0-8.7 13.4-18.7 22.5-29.3s1.8-17.8-.6-22.5-4.7-7.2-8.6-13.7-4.8-7.6-8.2-8.2c-3.7-.7-6.5 1.7-7.4 1.7s-3.5-4.5-6.7-5c-2.7 0-8 1-9.4 4-.5 3-2.2-.7-7.2-.5-4 0-9 6.5-10 7.6s-9.7 3.4-10.8 4.5c-1 1.6-8.4 13.6-8.2 14.2a78 78 0 0 1 2 17c.4 8.8 7.3 20 10.4 32.2 2.4 10 1.6 39.5 1.2 50.8h45c-1-11-3.8-45.3-3.8-52.7z"/><g style="isolation:isolate" font-size="21" font-family="Helvetica,sans-serif" font-weight="700"><text transform="translate(8.93 495.16)" style="isolation:isolate">No way!</text><text transform="translate(8.93 520.36)" style="isolation:isolate">I’ll block this.</text></g><path d="M987.2 392.31c-.3-5.7 2.5-14.3 6.7-15.8s15.6-14.2 17-16a18.71 18.71 0 0 0 4-7c1.6-4.4 8.6-11 8.6-11 3-3.3 5.7-4 7.2-4s4.6-1 5.5-2.4 1-5-4.3-7-8.7-3.8-20 5.7-15.5.6-15.5.6c-5-8.7-2.6-21.8 0-31.5s3-27.3 2-30-5.5-3-7.3-1.8-3.6 14.2-5 19.7l-4 15.5c-.7 6.7-5.8 4.4-7.5 3s-2.8-11.5-2.5-13.2a47.2 47.2 0 0 0-.3-7.8c-.3-1.3-3.4-15.5-4-20.3-.7-5.4-4.7-6.5-6.8-6.3a4 4 0 0 0-3.6 4c0 2 1.5 18.2 1 19.5s.2 11.6 1 13c.3 2 1.6 11 .7 11.3s-2.7-2-4-6l-3.8-11.7c-1.5-3.4-2.3-12.5-3.2-16.5s-3-5.5-6-5c-2.6.3-4.3 4.3-4 6.2 1 1.5 3 24.6 4 26.5s4 12.7 4 13.5-1.4 1.3-3.3.6-11.2-18-11.2-18c-3.4-5.8-4-11.3-9.5-9-3.6 2-1.5 5.5-.7 9 1.3 6 13.4 26.4 12.5 28.7s4.6 28 4.6 28c0 4.2 10.3 24.7 10.8 26s.3 13.3 0 18c-.4 5-1.3 33-1.6 42.4h41.6c-1.2-12.5-3-46-3.2-50.8z"/><text transform="translate(898.07 494.36)" style="isolation:isolate" font-size="21" font-family="Helvetica,sans-serif" font-weight="700">I love this! <tspan x="0" y="25.2">I will champion it.</tspan></text><path d="M451.3 408.11a161.4 161.4 0 0 1 .2-23c.4-2.5 9.3-18.7 9.3-18.7 3.2-7.2 6.5-17.6 5.4-19.5s-4.8-4.6-6.7-7.8c-3-3 5.6-30 5.6-30 3.6-7.3 5.5-28.5 5.5-28.5 0-4-1.7-4.6-4-5.4a4.75 4.75 0 0 0-5 1.6c-.8.9-5.5 18.4-6.6 20-.3 2-5 14.2-6.6 17.2s-7.3 1-7.3 1c-1.2-1.2 2-19.4 1.8-20.7-.2-1.7-1.5-16-1.5-19.8s0-10.4-5.2-11.5c-5-.4-5.3 2.6-5.5 3.3s0 12 0 13.4-1.8 14.5-1.8 14.5l.5 19.6c-1 1-4-1.7-7.2.3-4.3 1.8-4.3 9-5.8 10.7-3.7 1.5-10 6.5-12.4 10s-2.2 24-2 29.4 10 21.8 10 31c-.5 6.3-.8 36.7-.8 48.2h43l-2.7-35z"/><g style="isolation:isolate" font-size="21" font-family="Helvetica,sans-serif" font-weight="700"><text transform="translate(366.1 495.16)" style="isolation:isolate">I see MINOR</text><text transform="translate(366.1 520.36)" style="isolation:isolate">issues we need <tspan x="0" y="25.2">to resolve now.</tspan></text></g><path d="M269.2 383.11c.4-4.8 1-6.6 3-9l14.5-18c5.8-7.5 6.3-10.2 5.4-12.4s-5.8-9-7.6-13.5-6.7-10.3-6.7-10.3.5-5.8.5-7.6 1.7-9.3 4-15.6 2.6-23.8 2.6-26 0-6.7-4.5-7.6-5.8 5.4-5.8 5.4c-.4 8-4.5 19.3-4.5 19.3-2.7 9-3 18.4-4 18.4a10.2 10.2 0 0 0-8-3.7c-6.8 1.3-7.2 9-10.4 13-1.8-.5-6.7 1.3-6.7 1.3-6 2.7-3.7 1-6 1.8-2.7 1.4-.4 3.2-7 4.5a8.68 8.68 0 0 0-7.3 7c-1 6.4-2.7 7.3-2.7 8.6a18.2 18.2 0 0 0 1.3 4.5c-2.7 15.4 3.6 24.4 7.2 32.5 4.5 18.4 1 8.5 1.8 20.2.7 9.5-1 37-1.3 47.5h45.5c-1.6-11-6.8-48.2-3.3-60z"/><g style="isolation:isolate" font-size="21" font-family="Helvetica,sans-serif" font-weight="700"><text transform="matrix(1.01 0 0 1 180.61 495.16)" style="isolation:isolate">I see MAJOR<tspan x="0" y="25.2">issues we need</tspan><tspan x="0" y="50.4">to resolve.</tspan></text><text transform="matrix(1.01 0 0 1 180.61 520.36)" style="isolation:isolate"></text></g><path d="M635.5 384.91s8-23.2 9.6-32.7c2.7-8.5-2-11.7-2.2-12.7s-.2-7.4-.2-8.7 1.5-11.7 1.5-14 2.6-8.6 3-10 3.7-28.2 1.6-29.8c0 0-1.4-3-4.3-3.2s-4.6 1.7-5.2 4-2.5 14.4-3 15.7-5.5 23-5.7 23.7-4 1-4 0-.4-9.3 2.3-17c.8-3.2 0-27 .4-29 0-2-1.5-5-5.6-5.3s-4.8 3.4-5 7c0 0-.7 11.2-2 15.3a46 46 0 0 0-1.8 9.8c-.2 2.5 0 15.7-.8 16.7s-1 2.5-2.5 2-1-13.6-2-15.3-2-15.2-2-17.7 1.7-12.8-4.3-12.6-6.3 3.7-6 14 0 18.3.8 23 2.3 14.5 1 15.3-10 6.3-12 15.6c0 0-7.6 17.5 7.7 44.6 2.2 6.2 1.2 9 1.2 12.5l-.7 47.2h42.4c-1.6-20.2-4.3-56.3-2-58.4z"/><text transform="translate(553.34 495.16)" style="isolation:isolate" font-size="21" font-family="Helvetica,sans-serif" font-weight="700">I see minor <tspan x="0" y="25.2">issues we can</tspan><tspan x="0" y="50.4">resolve later.</tspan></text><path d="M801.7 419.91c0-8.5-2.3-27 2-31.5 2.5-4.2 20.6-18 23.5-22s4.3-12.5 7.5-20 10.4-19 10.4-19c1.2-3.3.6-5.2-5-5-9 1.3-15.3 12.6-15.7 14.7s-6.6 9.6-9.6 10.7-4.3-5.6-6-9.6-1.3-14.6-1.3-14.6c0-.6 2.8-15.5 3.2-20s-.6-23-.8-24-1.5-7-5.2-7-5.3 5-5.5 6.3-1.6 19.2-1.6 20.4-1.7 14.6-3.4 18.7-5.5-1-5.5-1c-1.3-3 0-3.5-1-12.4.8-8.3-.5-12.2-1-15.2s-2-18.2-2-18.2c-1-5-4-5-6.2-5s-5.8 3-5 5.7 1 17.2.5 23 1.7 21.5 1.7 21.5c.2 2-2 2.3-2.3 1.3-.3-3.5-4-14.5-5.6-18.8s-3.4-18.7-3.4-18.7c-.8-6-3-5-5.7-5-3 .3-4 1.6-4.7 4.4-1 3 3 15.5 2.8 21.2-1 6.2 7 23.5 5 24-1.6 0-1-.3-3.3-.5-4.5 1-4.7 4-6 10-6.6 29.7 6.6 49 10 56.5 2.2 5 1 34 0 52.7H803l-1-23.4z"/><text transform="translate(725.74 495.16)" style="isolation:isolate" font-size="21" font-family="Helvetica,sans-serif" font-weight="700">I’m fine with<tspan x="0" y="25.2">this as it is.</tspan></text><text transform="translate(95.45 633.59)" font-size="36" fill="#cc261e" font-family="Helvetica,sans-serif" font-weight="700">Lack of Consensus</text><path fill="#3d8915" stroke="#000" stroke-miterlimit="10" stroke-width="6" d="M1085 589.94H553"/><text transform="translate(708.45 633.59)" font-size="36" fill="#3d8915" font-family="Helvetica,sans-serif" font-weight="700">Consensus</text></svg>